<svg xmlns="http://www.w3.org/2000/svg" version="1.1" xmlns:xlink="http://www.w3.org/1999/xlink" xmlns:svgjs="http://svgjs.dev/svgjs" width="1920" height="1080" preserveAspectRatio="none" viewBox="0 0 1920 1080">
    <g mask="url(&quot;#SvgjsMask1040&quot;)" fill="none">
        <rect width="1920" height="1080" x="0" y="0" fill="#0e2a47"></rect>
        <path d="M0,831.641C157.262,815.834,303.308,763.714,441.422,686.867C587.474,605.604,770.826,534.352,820.9,374.892C871.057,215.167,737.278,61.109,688.183,-98.946C647.691,-230.952,653.448,-383.765,557.679,-483.232C463.287,-581.269,314.417,-587.848,183.089,-623.543C54.616,-658.462,-69.441,-691.695,-202.562,-689.864C-375.731,-687.482,-572.521,-722.268,-705.499,-611.318C-839.998,-499.098,-871.797,-301.301,-878.075,-126.248C-883.979,38.391,-802.52,185.505,-739.534,337.734C-674.059,495.978,-644.802,686.618,-502.388,781.731C-359.549,877.128,-170.905,848.819,0,831.641" fill="#0b2239"></path>
        <path d="M1920 1601.88C2036.33 1616.337 2154.786 1657.5819999999999 2264.274 1615.701 2383.349 1570.153 2507.173 1486.675 2541.874 1364 2576.452 1241.761 2468.422 1128.736 2436.8289999999997 1005.691 2409.584 899.578 2425.599 784.7280000000001 2369.05 690.896 2306.55 587.1890000000001 2224.068 468.943 2103.985 453.404 1982.863 437.73 1899.651 577.371 1783.5 615.123 1672.435 651.222 1530.412 588.913 1444.311 667.813 1358.56 746.393 1356.751 883.875 1363.508 999.989 1369.519 1103.292 1434.4180000000001 1188.0430000000001 1479.988 1280.9470000000001 1524.13 1370.939 1545.667 1477.394 1626.65 1536.461 1709.2649999999999 1596.719 1818.525 1589.269 1920 1601.88" fill="#113255"></path>
    </g>
    <defs>
        <mask id="SvgjsMask1040">
            <rect width="1920" height="1080" fill="#ffffff"></rect>
        </mask>
    </defs>
</svg>